# Blender v2.81 (sub 16) OBJ File: 'HallTile.blend'
# www.blender.org
mtllib HallTile.mtl
o Cube
v 0.974949 0.100000 -0.974949
v 0.974949 0.100000 0.974949
v -0.974949 0.100000 -0.974949
v -0.974949 0.100000 0.974949
v 0.100000 0.100000 -0.100000
v 0.100000 0.100000 0.100000
v -0.100000 0.100000 -0.100000
v -0.100000 0.100000 0.100000
v 0.080000 0.120000 -0.080000
v 0.080000 0.120000 0.080000
v -0.080000 0.120000 -0.080000
v -0.080000 0.120000 0.080000
v 0.800000 0.100000 -0.910000
v -0.800000 0.100000 -0.910000
v 0.080000 0.100000 -0.190000
v -0.080000 0.100000 -0.190000
v 0.910000 0.100000 -0.800000
v 0.910000 0.100000 0.800000
v 0.190000 0.100000 -0.080000
v 0.190000 0.100000 0.080000
v 0.800000 0.100000 0.910000
v -0.800000 0.100000 0.910000
v 0.080000 0.100000 0.190000
v -0.080000 0.100000 0.190000
v -0.910000 0.100000 -0.800000
v -0.910000 0.100000 0.800000
v -0.190000 0.100000 -0.080000
v -0.190000 0.100000 0.080000
v 0.800000 0.070000 -0.910000
v -0.800000 0.070000 -0.910000
v 0.080000 0.070000 -0.190000
v -0.080000 0.070000 -0.190000
v 0.910000 0.070000 -0.800000
v 0.910000 0.070000 0.800000
v 0.190000 0.070000 0.080000
v 0.800000 0.070000 0.910000
v -0.800000 0.070000 0.910000
v 0.080000 0.070000 0.190000
v -0.080000 0.070000 0.190000
v -0.910000 0.070000 -0.800000
v -0.910000 0.070000 0.800000
v -0.190000 0.070000 -0.080000
v -0.190000 0.070000 0.080000
v 1.000000 0.080000 -1.000000
v 1.000000 0.080000 1.000000
v -1.000000 0.080000 -1.000000
v -1.000000 0.080000 1.000000
v 1.000000 0.000000 -1.000000
v 1.000000 0.000000 1.000000
v -1.000000 0.000000 -1.000000
v -1.000000 0.000000 1.000000
v 0.190000 0.070000 -0.080000
vt 0.875000 0.750000
vt 0.875000 0.500000
vt 0.875000 0.500000
vt 0.875000 0.750000
vt 0.875000 0.500000
vt 0.875000 0.750000
vt 0.875000 0.750000
vt 0.875000 0.500000
vt 0.875000 0.750000
vt 0.875000 0.750000
vt 0.875000 0.750000
vt 0.875000 0.750000
vt 0.625000 0.500000
vt 0.625000 0.500000
vt 0.625000 0.500000
vt 0.625000 0.500000
vt 0.625000 0.500000
vt 0.625000 0.500000
vt 0.625000 0.500000
vt 0.625000 0.750000
vt 0.625000 0.750000
vt 0.625000 0.750000
vt 0.625000 0.750000
vt 0.875000 0.750000
vt 0.875000 0.500000
vt 0.875000 0.500000
vt 0.625000 0.750000
vt 0.625000 0.750000
vt 0.625000 0.750000
vt 0.625000 0.500000
vt 0.875000 0.500000
vt 0.625000 0.750000
vt 0.625000 0.500000
vt 0.625000 0.750000
vt 0.875000 0.500000
vt 0.875000 0.500000
vt 0.875000 0.750000
vt 0.875000 0.500000
vt 0.875000 0.500000
vt 0.875000 0.750000
vt 0.625000 0.750000
vt 0.625000 0.750000
vt 0.875000 0.500000
vt 0.875000 0.750000
vt 0.625000 0.500000
vt 0.875000 0.500000
vt 0.875000 0.750000
vt 0.625000 0.750000
vt 0.625000 0.500000
vt 0.625000 0.500000
vt 0.625000 0.750000
vt 0.000000 0.000000
vt 0.000000 0.000000
vt 0.000000 0.000000
vt 0.000000 0.000000
vt 0.000000 0.000000
vt 0.000000 0.000000
vn -0.6239 0.7815 0.0000
vn -0.7071 0.7071 0.0000
vn 0.0000 1.0000 -0.0000
vn 0.0000 0.7071 0.7071
vn 0.0000 0.7071 -0.7071
vn 0.7071 0.7071 0.0000
vn 0.0000 0.0000 -1.0000
vn -1.0000 0.0000 0.0000
vn 1.0000 0.0000 0.0000
vn 0.7071 0.0000 -0.7071
vn 0.0000 0.0000 1.0000
vn -0.7071 0.0000 -0.7071
vn 0.7071 0.0000 0.7071
vn -0.7071 0.0000 0.7071
vn 0.0000 0.7815 0.6239
vn 0.0000 0.7815 -0.6239
vn 0.6239 0.7815 0.0000
vn 0.0000 -1.0000 0.0000
usemtl Steal
s off
f 4/1/1 3/2/1 46/3/1 47/4/1
f 7/5/2 8/6/2 12/7/2 11/8/2
f 4/1/3 8/6/3 28/9/3 26/10/3
f 8/6/3 4/1/3 22/11/3 24/12/3
f 5/13/3 1/14/3 13/15/3 15/16/3
f 1/14/3 5/13/3 19/17/3 17/18/3
f 9/19/3 11/8/3 12/7/3 10/20/3
f 8/6/4 6/21/4 10/20/4 12/7/4
f 5/13/5 7/5/5 11/8/5 9/19/5
f 6/21/6 5/13/6 9/19/6 10/20/6
f 22/11/7 21/22/7 36/23/7 37/24/7
f 3/2/3 7/5/3 16/25/3 14/26/3
f 7/5/3 5/13/3 15/16/3 16/25/3
f 1/14/3 3/2/3 14/26/3 13/15/3
f 5/13/3 6/21/3 20/27/3 19/17/3
f 2/28/3 1/14/3 17/18/3 18/29/3
f 6/21/3 2/28/3 18/29/3 20/27/3
f 16/25/7 15/16/7 31/30/7 32/31/7
f 6/21/3 8/6/3 24/12/3 23/32/3
f 4/1/3 2/28/3 21/22/3 22/11/3
f 2/28/3 6/21/3 23/32/3 21/22/3
f 18/29/8 17/18/8 33/33/8 34/34/8
f 8/6/3 7/5/3 27/35/3 28/9/3
f 3/2/3 4/1/3 26/10/3 25/36/3
f 7/5/3 3/2/3 25/36/3 27/35/3
f 25/36/9 26/10/9 41/37/9 40/38/9
f 14/26/10 16/25/10 32/31/10 30/39/10
f 23/32/11 24/12/11 39/40/11 38/41/11
f 20/27/10 18/29/10 34/34/10 35/42/10
f 28/9/8 27/35/8 42/43/8 43/44/8
f 15/16/12 13/15/12 29/45/12 31/30/12
f 24/12/13 22/11/13 37/24/13 39/40/13
f 26/10/12 28/9/12 43/44/12 41/37/12
f 21/22/14 23/32/14 38/41/14 36/23/14
f 27/35/14 25/36/14 40/38/14 42/43/14
f 13/15/11 14/26/11 30/39/11 29/45/11
f 47/4/8 46/3/8 50/46/8 51/47/8
f 2/28/15 4/1/15 47/4/15 45/48/15
f 3/2/16 1/14/16 44/49/16 46/3/16
f 1/14/17 2/28/17 45/48/17 44/49/17
f 48/50/18 49/51/18 51/47/18 50/46/18
f 45/48/11 47/4/11 51/47/11 49/51/11
f 46/3/7 44/49/7 48/50/7 50/46/7
f 44/49/9 45/48/9 49/51/9 48/50/9
f 52/52/9 19/53/9 20/54/9 35/55/9
f 19/53/13 52/52/13 33/56/13 17/57/13
usemtl PaintedSteal
f 29/45/3 30/39/3 32/31/3 31/30/3
f 37/24/3 36/23/3 38/41/3 39/40/3
f 40/38/3 41/37/3 43/44/3 42/43/3
f 33/56/3 52/52/3 35/55/3 34/34/3
